<?xml version="1.0" standalone="no"?>
<!DOCTYPE svg PUBLIC "-//W3C//DTD SVG 20010904//EN"
 "http://www.w3.org/TR/2001/REC-SVG-20010904/DTD/svg10.dtd">
<svg version="1.0" xmlns="http://www.w3.org/2000/svg"
 width="1599.000000pt" height="595.000000pt" viewBox="0 0 1599.000000 595.000000"
 preserveAspectRatio="xMidYMid meet">

<g transform="translate(0.000000,595.000000) scale(0.100000,-0.100000)"
fill="#000000" stroke="none">
<path d="M4492 5885 c-12 -14 -22 -29 -22 -34 0 -5 -3 -11 -7 -13 -14 -6 -93
-106 -93 -118 0 -6 -4 -8 -10 -5 -5 3 -10 -1 -10 -10 0 -8 -7 -18 -15 -21 -8
-4 -15 -12 -15 -20 0 -20 9 -17 31 9 11 13 18 17 19 9 0 -20 -46 -67 -130
-131 -77 -59 -210 -141 -229 -141 -6 0 -11 -4 -11 -10 0 -5 -4 -10 -9 -10 -8
0 -225 -116 -261 -139 -8 -6 -44 -27 -80 -47 -58 -34 -126 -80 -215 -146 -96
-72 -232 -237 -260 -315 -3 -10 -38 -42 -77 -72 -56 -41 -90 -59 -157 -78 -96
-28 -195 -71 -258 -114 -23 -16 -45 -29 -48 -29 -4 0 -21 -11 -39 -25 -122
-99 -172 -141 -181 -151 -5 -6 -46 -43 -90 -81 -44 -39 -108 -98 -142 -132
-66 -64 -85 -72 -103 -43 -11 16 -11 16 -6 0 3 -10 9 -25 13 -35 4 -10 2 -14
-4 -10 -6 4 -16 0 -23 -8 -7 -8 -9 -15 -5 -15 4 0 -4 -9 -18 -20 -27 -21 -49
-28 -30 -9 15 15 5 41 -10 29 -58 -47 -121 -91 -167 -116 -76 -41 -238 -111
-278 -119 -18 -4 -36 -13 -38 -20 -3 -7 24 -58 60 -113 68 -105 156 -275 156
-303 0 -9 9 -46 20 -81 17 -57 25 -93 49 -248 4 -25 10 -50 13 -55 3 -6 9 -33
12 -61 3 -28 10 -63 16 -78 9 -25 23 -94 36 -174 2 -18 16 -63 30 -100 14 -37
29 -83 34 -103 10 -40 58 -139 67 -139 3 0 3 7 0 15 -4 8 -2 17 2 20 5 2 11
-10 15 -28 5 -24 9 -29 16 -17 7 11 11 8 20 -14 6 -16 8 -32 4 -35 -4 -3 -9 0
-11 7 -3 6 -9 10 -14 7 -11 -7 17 -51 37 -59 12 -5 14 -1 9 17 -5 19 -2 17 17
-8 13 -16 44 -50 71 -74 26 -24 47 -49 47 -55 0 -7 11 -47 26 -90 24 -75 25
-80 10 -135 -8 -31 -15 -50 -15 -43 -1 7 -5 10 -11 7 -15 -9 -12 -25 5 -25 10
0 15 -9 14 -27 0 -25 -1 -26 -10 -8 -19 41 -1 -159 21 -230 44 -144 83 -261
95 -285 59 -117 195 -413 195 -423 0 -7 4 -17 9 -22 14 -16 69 -166 85 -235 9
-36 20 -126 24 -201 5 -75 13 -142 17 -148 4 -7 14 -9 24 -6 52 21 220 57 309
67 78 9 138 9 245 0 161 -13 382 -45 442 -63 26 -8 115 -13 250 -13 193 -1
216 1 283 22 105 33 238 88 273 113 23 16 40 20 72 16 45 -5 106 -26 128 -44
8 -6 34 -17 59 -24 25 -7 51 -17 57 -22 23 -17 320 -29 448 -18 66 6 161 13
210 16 50 3 108 10 130 15 88 21 379 33 506 21 67 -6 127 -15 133 -20 6 -5 34
-12 61 -15 28 -4 60 -10 72 -13 21 -5 21 -3 25 154 4 177 18 231 86 353 20 36
42 79 48 95 6 17 24 59 39 95 15 36 31 79 36 97 5 17 24 53 43 80 18 26 43 77
56 113 12 36 33 86 46 112 35 70 61 145 74 213 14 78 23 335 12 335 -5 0 -15
20 -22 44 -11 40 -10 51 14 117 14 40 26 80 26 88 0 9 22 37 49 64 27 26 47
47 44 47 -3 0 0 6 6 13 6 8 31 52 55 98 25 46 51 84 58 84 7 0 17 15 23 33 5
17 13 32 17 32 4 0 8 11 8 24 0 13 7 43 15 67 10 28 12 45 5 47 -18 6 -11 22
10 22 19 0 26 24 21 67 -1 7 4 23 12 35 8 13 20 50 26 83 7 33 17 71 22 83 5
13 13 64 19 113 5 49 11 92 13 96 3 5 8 33 12 63 4 30 9 58 12 63 2 4 13 39
24 77 25 90 89 220 169 339 58 88 61 95 44 108 -10 7 -23 13 -28 13 -18 0
-207 77 -219 89 -6 6 -15 11 -20 11 -17 0 -154 90 -191 126 -20 19 -36 32 -36
28 0 -4 -9 1 -19 10 -11 10 -30 16 -43 14 -17 -2 -37 11 -75 50 -29 28 -56 52
-59 52 -3 0 -20 15 -37 33 -124 125 -296 266 -439 359 -91 60 -243 118 -308
118 -61 0 -190 97 -246 183 -25 38 -69 94 -97 125 -99 105 -254 215 -465 331
-48 26 -107 59 -132 73 -25 14 -80 44 -124 68 -95 52 -238 147 -249 166 -9 16
-28 35 -56 54 -22 15 -29 56 -10 62 6 2 -5 21 -25 42 -20 21 -36 42 -36 45 0
3 -20 29 -45 56 -25 28 -45 53 -45 58 0 14 -17 7 -38 -18z m151 -160 c4 -8 3
-16 -1 -19 -4 -3 -9 4 -9 15 -2 23 3 25 10 4z m-99 -154 c-4 -3 -9 0 -11 7 -3
6 -11 12 -19 12 -9 0 -12 5 -9 11 5 7 14 4 26 -7 11 -9 16 -20 13 -23z m-149
-92 c-5 -7 19 -9 80 -5 l86 6 -3 -87 -3 -88 40 4 c22 2 44 9 48 15 6 8 10 7
14 -4 4 -8 20 -28 37 -45 30 -29 31 -32 29 -117 l-2 -88 39 0 c38 0 39 1 43
38 2 20 3 9 0 -25 l-4 -63 41 0 c22 0 40 4 40 10 0 5 7 7 16 3 16 -6 16 -7 0
-18 -20 -15 -23 -101 -4 -107 23 -8 -17 -37 -43 -32 -22 5 -22 4 -5 -6 13 -9
24 -9 43 -1 30 14 73 14 73 1 0 -5 -13 -7 -30 -3 -19 3 -30 1 -30 -6 0 -6 16
-11 37 -11 58 0 404 -111 458 -147 11 -7 29 -13 42 -13 12 0 25 -5 28 -10 4
-6 34 -24 67 -41 33 -17 66 -35 72 -40 6 -5 47 -32 91 -60 213 -137 410 -321
570 -534 47 -63 175 -266 175 -279 0 -2 22 -50 49 -107 52 -111 120 -315 146
-439 99 -473 34 -987 -176 -1400 -148 -292 -357 -552 -584 -728 -44 -34 -84
-66 -90 -70 -54 -42 -195 -128 -305 -184 -65 -34 -225 -96 -325 -126 -162 -49
-284 -71 -464 -84 -391 -28 -753 42 -1096 212 -248 122 -391 224 -585 420
-138 138 -217 242 -340 448 -52 86 -62 96 -139 147 -46 30 -87 55 -91 55 -3 0
-20 15 -37 32 -20 21 -40 63 -58 118 -24 70 -36 93 -77 133 -137 136 -218 348
-293 767 -64 358 -97 478 -171 617 -19 36 -34 66 -34 69 0 2 36 22 81 44 136
68 226 139 476 378 87 82 174 162 193 178 19 16 41 34 48 41 7 7 46 37 86 67
125 95 245 149 396 180 14 3 36 16 50 28 33 30 98 79 133 102 16 9 35 34 44
54 45 108 144 218 283 317 129 91 178 119 510 293 58 30 131 72 162 93 32 22
62 39 66 39 5 0 21 11 35 24 24 22 56 45 65 46 2 0 0 -5 -3 -11z m295 -39 c0
-5 -2 -10 -4 -10 -3 0 -8 5 -11 10 -3 6 -1 10 4 10 6 0 11 -4 11 -10z m-23
-25 c8 -22 -6 -33 -17 -15 -13 20 -12 30 0 30 6 0 13 -7 17 -15z m293 -433 c0
-14 -23 -32 -42 -32 -25 0 -23 13 5 26 28 15 37 16 37 6z m2050 -987 c7 -8 8
-15 2 -15 -5 0 -15 7 -22 15 -7 8 -8 15 -2 15 5 0 15 -7 22 -15z m173 -1265
c-3 -11 -7 -20 -9 -20 -2 0 -4 9 -4 20 0 11 4 20 9 20 5 0 7 -9 4 -20z m-5268
-150 c3 -5 1 -10 -4 -10 -6 0 -11 5 -11 10 0 6 2 10 4 10 3 0 8 -4 11 -10z"/>
<path d="M4370 5456 c0 -7 7 -19 15 -26 16 -13 20 -3 9 24 -8 20 -24 21 -24 2z"/>
<path d="M4328 5413 c7 -3 16 -2 19 1 4 3 -2 6 -13 5 -11 0 -14 -3 -6 -6z"/>
<path d="M4770 4910 l-25 -8 28 -1 c15 -1 27 4 27 9 0 6 -1 10 -2 9 -2 -1 -14
-5 -28 -9z"/>
<path d="M4828 4903 c7 -3 16 -2 19 1 4 3 -2 6 -13 5 -11 0 -14 -3 -6 -6z"/>
<path d="M4700 4890 c0 -5 5 -10 10 -10 6 0 10 5 10 10 0 6 -4 10 -10 10 -5 0
-10 -4 -10 -10z"/>
<path d="M4778 4873 c7 -3 16 -2 19 1 4 3 -2 6 -13 5 -11 0 -14 -3 -6 -6z"/>
<path d="M4825 4760 c11 -5 30 -9 43 -9 12 -1 22 -5 22 -9 0 -13 68 -32 72
-20 3 7 17 7 38 2 l35 -8 -30 -6 c-25 -5 -19 -8 45 -21 94 -20 222 -67 320
-116 41 -21 82 -40 90 -43 8 -3 47 -24 85 -48 39 -24 79 -48 90 -55 11 -7 40
-28 65 -48 25 -19 70 -54 100 -76 54 -39 193 -172 257 -244 49 -57 165 -218
206 -286 33 -55 76 -142 145 -295 28 -61 86 -261 106 -363 84 -428 21 -897
-173 -1286 -43 -86 -153 -266 -170 -279 -4 -3 -18 -21 -31 -40 -43 -61 -62
-82 -185 -205 -148 -149 -163 -161 -300 -254 -439 -297 -1004 -408 -1528 -300
-335 69 -631 213 -899 437 -98 82 -234 226 -307 327 -86 117 -101 134 -131
150 -59 31 -28 -29 106 -205 279 -368 680 -629 1144 -747 465 -117 961 -65
1395 146 425 208 738 518 944 934 157 317 221 583 222 925 0 272 -38 490 -128
732 -44 118 -148 331 -165 338 -5 2 -8 8 -8 12 0 5 -14 31 -32 57 -112 168
-245 318 -398 447 -81 69 -118 96 -220 162 -25 16 -47 32 -50 35 -12 14 -298
149 -316 149 -11 0 -24 4 -30 9 -5 5 -20 12 -34 16 -19 5 -21 4 -10 -4 13 -9
13 -11 -2 -11 -10 0 -18 7 -18 15 0 13 -55 35 -90 35 -9 0 -21 5 -27 11 -5 5
-40 11 -77 12 -36 1 -66 5 -66 9 0 3 -23 11 -50 17 -60 13 -83 13 -55 1z"/>
<path d="M4793 4743 c9 -2 23 -2 30 0 6 3 -1 5 -18 5 -16 0 -22 -2 -12 -5z"/>
<path d="M4535 4515 c4 -63 3 -115 -2 -115 -4 0 -19 10 -33 23 -68 62 -183
159 -206 173 -44 30 -47 13 -30 -193 9 -104 16 -194 16 -201 0 -8 17 -12 47
-12 l46 0 -7 115 c-3 63 -3 115 2 115 4 0 59 -45 122 -100 123 -107 160 -124
160 -72 0 39 -19 288 -26 340 l-5 42 -46 0 -45 0 7 -115z"/>
<path d="M4797 4613 c-3 -4 -14 -57 -26 -118 -12 -60 -28 -148 -38 -193 -12
-63 -13 -86 -4 -91 6 -4 68 -17 138 -30 69 -12 131 -23 136 -24 11 -2 41 72
33 80 -2 3 -48 13 -102 24 -53 10 -99 20 -101 23 -3 3 -2 18 2 35 7 35 13 36
100 20 65 -12 75 -6 75 47 0 30 -1 31 -70 43 -38 7 -72 17 -75 21 -3 5 -3 21
1 36 6 23 10 25 38 20 108 -22 167 -29 175 -21 15 18 22 75 8 79 -6 3 -66 14
-132 26 -66 12 -127 24 -137 26 -9 3 -18 1 -21 -3z"/>
<path d="M5248 4436 c-69 -30 -122 -112 -122 -191 0 -65 35 -129 92 -169 36
-26 55 -31 115 -34 l72 -4 42 87 c24 48 40 91 38 96 -6 8 -113 59 -124 59 -3
0 -14 -16 -23 -35 -17 -34 -17 -35 2 -47 24 -15 26 -41 5 -58 -11 -9 -22 -9
-49 0 -72 23 -97 106 -53 170 42 64 121 65 181 3 l36 -37 35 17 c19 9 35 22
35 30 0 23 -60 85 -103 106 -49 24 -135 27 -179 7z"/>
<path d="M3671 4389 c-31 -19 -33 -23 -28 -62 3 -23 13 -120 23 -214 19 -189
20 -191 78 -155 23 14 30 25 30 51 1 32 6 37 72 72 l72 39 25 -21 26 -20 41
21 c23 12 40 25 38 29 -2 5 -66 62 -143 127 -77 66 -149 127 -159 136 -25 23
-34 22 -75 -3z m133 -164 c22 -19 37 -37 35 -39 -2 -2 -19 -11 -38 -21 -28
-14 -35 -14 -42 -3 -11 16 -12 98 -1 98 4 -1 25 -16 46 -35z"/>
<path d="M5604 4164 c-122 -146 -168 -204 -163 -207 2 -2 47 -39 99 -83 142
-119 127 -111 155 -84 14 13 25 31 25 39 -1 9 -34 43 -75 76 -41 33 -75 62
-75 65 1 8 38 50 44 50 3 0 33 -21 65 -46 l60 -46 25 28 c14 16 26 32 26 35 0
8 -54 57 -91 83 -19 13 -22 20 -13 33 25 40 40 39 101 -13 98 -84 90 -80 118
-54 14 13 25 29 25 36 0 15 -208 194 -225 194 -6 0 -52 -48 -101 -106z"/>
<path d="M3344 4175 c-4 -8 -2 -70 2 -136 5 -66 7 -122 4 -124 -3 -2 -60 0
-125 4 -181 12 -181 12 -2 -167 l148 -147 30 34 31 34 -71 71 c-39 39 -71 75
-71 80 0 5 34 6 75 2 l75 -7 0 83 0 82 75 -74 75 -74 30 29 c16 16 30 34 30
40 0 14 -277 285 -291 285 -5 0 -12 -7 -15 -15z"/>
<path d="M5886 3839 l-165 -120 22 -34 c12 -19 28 -35 35 -35 7 0 38 19 68 42
44 33 59 40 72 31 28 -17 25 -41 -14 -129 l-37 -83 27 -36 c16 -20 33 -34 38
-33 6 2 25 35 42 74 43 97 41 94 76 81 25 -9 37 -8 74 11 101 48 103 120 7
255 -35 48 -66 89 -71 92 -4 3 -82 -49 -174 -116z m209 -83 c20 -38 15 -66
-13 -66 -20 0 -48 27 -78 74 -17 28 -17 28 7 46 23 18 25 18 45 -1 12 -11 29
-35 39 -53z"/>
<path d="M4571 3794 c-28 -35 -26 -69 4 -99 72 -73 175 30 107 108 -24 28 -86
23 -111 -9z"/>
<path d="M2964 3700 c-17 -11 -43 -42 -57 -69 -44 -79 -33 -155 25 -191 56
-34 91 -27 151 31 77 74 75 73 92 59 28 -23 18 -61 -28 -104 -41 -39 -43 -43
-34 -78 5 -21 15 -38 21 -38 24 0 96 60 121 100 32 51 37 135 11 175 -23 34
-79 58 -118 50 -16 -4 -55 -31 -86 -61 -31 -30 -60 -54 -63 -54 -4 0 -12 7
-19 15 -18 22 10 81 45 97 22 10 25 16 19 42 -3 17 -8 34 -11 39 -8 13 -37 7
-69 -13z"/>
<path d="M4400 3681 c-71 -23 -140 -82 -140 -119 0 -10 3 -13 8 -6 29 43 116
59 147 27 15 -14 16 -27 9 -82 -14 -101 -10 -301 6 -336 13 -29 14 -27 21 53
6 67 16 99 48 166 74 153 131 172 233 78 l28 -25 -9 29 c-20 71 -83 145 -163
193 -40 24 -145 36 -188 22z"/>
<path d="M6103 3485 c-95 -46 -173 -86 -173 -89 0 -14 35 -76 42 -76 5 0 79
34 165 75 85 41 158 75 162 75 3 0 14 7 24 14 17 13 17 15 1 50 -10 20 -25 36
-33 35 -9 0 -94 -38 -188 -84z"/>
<path d="M4875 3522 c34 -28 55 -65 55 -93 0 -34 -41 -69 -81 -69 -36 0 -153
-25 -204 -43 -52 -19 -139 -71 -105 -63 87 22 125 25 193 16 147 -19 199 -48
199 -112 0 -20 -7 -51 -16 -69 -9 -18 -14 -34 -12 -36 9 -9 81 78 105 127 20
43 26 70 26 125 0 93 -31 157 -99 203 -52 35 -98 46 -61 14z"/>
<path d="M3952 3458 c-7 -7 -11 -23 -11 -37 1 -17 3 -20 6 -8 6 24 21 21 25
-5 2 -15 11 -24 26 -26 19 -3 21 -6 11 -18 -9 -11 -8 -14 5 -14 20 0 20 19 1
44 -24 32 -17 42 8 13 28 -33 32 -33 35 -4 2 26 -17 67 -31 67 -6 0 -3 -8 6
-18 25 -27 22 -50 -3 -27 -11 10 -20 24 -20 32 0 16 -42 17 -58 1z"/>
<path d="M4190 3410 c-12 -8 -11 -10 7 -10 12 0 25 5 28 10 8 13 -15 13 -35 0z"/>
<path d="M3945 3380 c3 -5 8 -10 11 -10 2 0 4 5 4 10 0 6 -5 10 -11 10 -5 0
-7 -4 -4 -10z"/>
<path d="M4165 3380 c-4 -6 -10 -8 -15 -5 -15 9 -51 -15 -48 -32 2 -9 -3 -18
-9 -20 -7 -3 -13 1 -13 7 0 7 -6 6 -15 -4 -18 -18 -20 -33 -2 -18 8 7 18 7 27
2 20 -13 33 -12 25 0 -7 11 6 13 29 4 9 -3 16 -15 16 -26 0 -10 4 -17 9 -14
15 9 0 58 -16 52 -8 -3 -11 -1 -8 4 3 6 -1 10 -10 10 -18 0 -16 21 3 28 7 2
12 -4 12 -13 0 -9 6 -15 13 -12 6 2 17 -3 24 -12 11 -14 12 -13 13 7 0 12 -5
22 -11 22 -6 0 -9 7 -5 15 6 17 -9 21 -19 5z"/>
<path d="M5092 3304 c-32 -22 -31 -86 3 -108 34 -22 68 -20 93 7 28 30 28 68
-1 95 -27 26 -64 28 -95 6z"/>
<path d="M4191 3294 c0 -11 3 -14 6 -6 3 7 2 16 -1 19 -3 4 -6 -2 -5 -13z"/>
<path d="M4071 3284 c0 -11 3 -14 6 -6 3 7 2 16 -1 19 -3 4 -6 -2 -5 -13z"/>
<path d="M4045 3250 c-4 -11 -11 -18 -16 -15 -5 4 -9 1 -9 -4 0 -6 5 -11 10
-11 18 0 10 -18 -10 -23 -15 -4 -20 -14 -20 -36 0 -17 4 -31 9 -31 5 0 7 10 5
23 -3 17 -1 15 9 -7 17 -34 31 -20 21 21 -7 25 -6 27 9 15 12 -11 20 -11 34
-2 16 10 16 11 1 6 -19 -6 -34 9 -18 19 14 9 12 34 -4 51 -13 12 -15 11 -21
-6z m25 -30 c0 -5 -2 -10 -4 -10 -3 0 -8 5 -11 10 -3 6 -1 10 4 10 6 0 11 -4
11 -10z"/>
<path d="M4198 3247 c-3 -14 1 -32 7 -39 22 -23 28 -58 11 -58 -9 0 -16 8 -16
19 0 30 -11 51 -27 51 -8 0 -12 4 -8 9 3 6 -3 15 -14 20 -27 15 -31 14 -31 -9
0 -11 -4 -20 -10 -20 -5 0 -10 -4 -10 -10 0 -5 5 -10 11 -10 6 0 17 -7 25 -15
8 -8 21 -12 29 -9 7 3 18 -3 24 -14 6 -11 20 -22 31 -25 11 -3 18 -1 15 4 -3
4 4 18 16 30 15 15 18 24 10 32 -8 8 -11 7 -11 -2 0 -11 -3 -11 -15 -1 -9 7
-14 19 -11 26 2 6 -1 20 -8 30 -12 16 -13 15 -18 -9z"/>
<path d="M4295 3151 c11 -13 28 -27 39 -33 29 -16 11 7 -27 33 l-32 23 20 -23z"/>
<path d="M4686 3127 c23 -43 44 -54 44 -24 0 7 -4 6 -10 -3 -9 -13 -10 -13
-10 0 0 8 -11 29 -25 45 l-25 30 26 -48z"/>
<path d="M4250 3126 c0 -2 9 -6 20 -9 11 -3 18 -1 14 4 -5 9 -34 13 -34 5z"/>
<path d="M4020 3096 c0 -8 4 -17 9 -20 5 -4 7 3 4 14 -6 23 -13 26 -13 6z"/>
<path d="M4305 3100 c3 -5 18 -10 32 -10 32 0 28 5 -10 14 -19 4 -26 3 -22 -4z"/>
<path d="M4410 3070 c0 -5 9 -10 21 -10 11 0 17 5 14 10 -3 6 -13 10 -21 10
-8 0 -14 -4 -14 -10z"/>
<path d="M4732 2970 c0 -14 2 -19 5 -12 2 6 2 18 0 25 -3 6 -5 1 -5 -13z"/>
<path d="M4741 2924 c0 -11 3 -14 6 -6 3 7 2 16 -1 19 -3 4 -6 -2 -5 -13z"/>
<path d="M4995 2921 c-3 -5 -1 -12 5 -16 5 -3 10 1 10 9 0 18 -6 21 -15 7z"/>
<path d="M4741 2883 c0 -12 -4 -30 -7 -40 -5 -17 -5 -17 6 0 6 10 9 28 7 40
-4 22 -4 22 -6 0z"/>
<path d="M4945 2860 c-3 -5 -1 -10 4 -10 6 0 11 5 11 10 0 6 -2 10 -4 10 -3 0
-8 -4 -11 -10z"/>
<path d="M4966 2833 c-6 -14 -5 -15 5 -6 7 7 10 15 7 18 -3 3 -9 -2 -12 -12z"/>
<path d="M4915 2780 c-3 -5 -2 -10 4 -10 5 0 13 5 16 10 3 6 2 10 -4 10 -5 0
-13 -4 -16 -10z"/>
<path d="M2900 2755 c-8 -22 -13 -24 -29 -15 -11 5 -24 10 -30 10 -17 0 -13
-28 6 -39 15 -8 16 -12 4 -34 -17 -32 -7 -51 19 -37 26 14 40 12 40 -5 0 -9 9
-15 21 -15 18 0 20 4 14 29 -5 25 -3 30 17 33 29 4 30 32 1 36 -15 2 -23 11
-25 29 -4 36 -26 40 -38 8z"/>
<path d="M4590 2766 c0 -9 30 -14 35 -6 4 6 -3 10 -14 10 -12 0 -21 -2 -21 -4z"/>
<path d="M4668 2763 c7 -3 16 -2 19 1 4 3 -2 6 -13 5 -11 0 -14 -3 -6 -6z"/>
<path d="M4825 2734 c-40 -14 -40 -14 -5 -9 19 3 39 10 44 15 12 12 12 12 -39
-6z"/>
<path d="M6152 2723 c2 -21 -2 -28 -17 -31 -35 -7 -40 -21 -11 -32 23 -8 27
-15 22 -35 -8 -33 13 -43 34 -15 15 19 20 21 40 10 33 -18 50 3 24 31 -18 20
-18 21 0 34 26 20 14 50 -14 35 -23 -12 -40 -6 -40 16 0 8 -9 14 -20 14 -17 0
-20 -6 -18 -27z"/>
<path d="M4675 2730 c3 -6 20 -10 37 -10 38 0 34 5 -10 13 -21 4 -31 3 -27 -3z"/>
<path d="M4780 2649 c0 -5 5 -7 10 -4 6 3 10 8 10 11 0 2 -4 4 -10 4 -5 0 -10
-5 -10 -11z"/>
<path d="M4430 2631 c-69 -21 -141 -75 -167 -124 -8 -17 -21 -63 -28 -101 -7
-39 -17 -70 -22 -69 -5 1 -44 5 -86 9 l-77 7 -1 -29 c0 -16 0 -173 0 -349 l1
-320 97 -6 c54 -3 109 -11 123 -16 14 -6 55 -23 93 -38 37 -15 67 -31 67 -36
0 -5 5 -9 12 -9 6 0 4 8 -7 19 -27 31 -179 101 -243 113 -31 6 -63 12 -69 14
-10 3 -13 72 -13 304 l0 301 62 -3 62 -3 28 -49 c46 -77 81 -101 173 -116 63
-10 137 8 174 44 15 14 31 26 35 26 5 0 6 -43 2 -95 -14 -183 -54 -255 -141
-255 -56 0 -83 13 -95 46 -12 29 3 64 25 64 24 0 20 85 -5 110 -43 43 -117 36
-154 -13 -27 -37 -27 -107 1 -145 67 -91 268 -116 399 -50 109 54 194 209 194
356 0 70 7 80 58 84 26 3 53 2 60 0 10 -3 12 -70 10 -306 l-3 -301 -45 -5
c-49 -6 -193 -58 -198 -72 -2 -4 -9 -8 -16 -8 -6 0 -27 -14 -46 -31 l-35 -30
45 25 c82 45 195 76 281 76 65 0 78 3 83 18 4 15 2 579 -2 655 -2 24 -6 27
-39 27 -21 -1 -58 -5 -82 -9 -25 -5 -50 -7 -56 -5 -6 3 -17 32 -24 66 -7 34
-21 79 -32 100 -11 21 -16 38 -13 38 4 0 -1 10 -12 22 -12 14 -14 19 -4 13 10
-5 12 -5 5 2 -5 6 -47 22 -93 37 -65 20 -102 26 -170 25 -48 0 -98 -4 -112 -8z
m169 -21 c35 -18 46 -68 46 -210 0 -147 -9 -178 -61 -219 -33 -26 -65 -27 -95
-2 -23 19 -24 25 -27 184 -4 180 6 229 50 247 31 12 65 12 87 0z"/>
<path d="M2833 2286 c-83 -33 -155 -64 -158 -67 -6 -7 20 -79 29 -79 3 0 30
11 61 24 30 14 55 21 55 16 0 -5 -17 -43 -37 -85 -37 -74 -37 -75 -22 -117 9
-23 20 -43 25 -45 5 -2 34 46 64 107 30 60 56 110 58 110 2 0 49 -14 103 -31
55 -18 102 -29 105 -26 4 3 -2 23 -12 44 -17 34 -27 41 -91 62 -40 14 -73 27
-73 31 0 3 23 14 50 24 37 13 50 23 50 38 0 30 -19 58 -38 57 -9 -1 -85 -29
-169 -63z"/>
<path d="M6082 2295 c-102 -86 -90 -244 24 -311 38 -23 53 -26 108 -22 77 5
128 38 157 102 19 41 25 131 11 153 -7 11 -162 77 -168 71 -7 -8 -44 -101 -44
-113 0 -7 14 -18 32 -26 29 -12 33 -11 46 9 11 17 18 19 33 11 38 -20 12 -97
-40 -119 -67 -27 -141 22 -141 95 0 34 6 50 30 75 34 36 35 39 18 75 -14 32
-29 32 -66 0z"/>
<path d="M3937 2206 c-17 -13 -18 -35 -14 -332 3 -176 6 -325 7 -332 4 -14 52
-8 58 8 2 4 12 6 22 3 11 -3 20 -1 20 5 0 11 -58 25 -71 16 -5 -3 -9 -1 -9 5
0 5 5 13 10 16 12 7 13 625 2 625 -4 0 -15 -7 -25 -14z m10 -478 c-2 -13 -4
-3 -4 22 0 25 2 35 4 23 2 -13 2 -33 0 -45z"/>
<path d="M5140 1896 c0 -186 -4 -327 -9 -330 -5 -4 -11 -2 -13 4 -2 6 -8 6
-18 0 -13 -8 -12 -10 3 -10 9 0 17 -4 17 -9 0 -5 11 -11 24 -13 18 -4 27 1 34
16 13 26 21 87 11 81 -4 -3 -6 123 -5 279 1 260 0 285 -16 295 -10 6 -20 11
-23 11 -3 0 -5 -146 -5 -324z m30 300 c0 -3 -4 -8 -10 -11 -5 -3 -10 -1 -10 4
0 6 5 11 10 11 6 0 10 -2 10 -4z m-6 -346 c0 -144 -2 -251 -6 -238 -8 29 -10
513 -2 505 4 -3 7 -124 8 -267z m13 -42 c-2 -13 -4 -3 -4 22 0 25 2 35 4 23 2
-13 2 -33 0 -45z m-17 -248 c0 -5 -5 -10 -11 -10 -5 0 -7 5 -4 10 3 6 8 10 11
10 2 0 4 -4 4 -10z"/>
<path d="M5891 1941 c-12 -16 -21 -31 -21 -33 0 -2 36 -31 80 -63 44 -32 77
-62 73 -66 -5 -3 -69 -14 -143 -24 -126 -17 -160 -26 -160 -45 0 -8 263 -208
286 -217 14 -5 53 32 54 53 0 9 -39 41 -138 111 -10 6 -14 14 -10 18 4 4 67
16 140 26 154 22 158 23 158 44 0 14 -273 225 -291 225 -4 0 -17 -13 -28 -29z"/>
<path d="M3064 1950 c-146 -34 -199 -196 -101 -306 41 -47 77 -64 137 -64 77
0 155 50 180 116 38 99 -26 225 -128 254 -41 11 -44 11 -88 0z m96 -93 c49
-38 61 -89 33 -137 -57 -97 -193 -65 -193 45 0 53 53 105 107 105 21 0 45 -6
53 -13z"/>
<path d="M3376 1656 c-9 -14 -16 -28 -16 -30 0 -3 19 -23 41 -44 l41 -38 -53
-65 c-29 -35 -56 -66 -59 -69 -3 -3 -21 -25 -40 -49 l-34 -44 30 -23 c16 -13
32 -24 36 -24 3 0 48 50 98 111 100 120 87 115 154 61 l29 -23 23 22 c13 12
24 27 24 34 0 12 -224 198 -244 203 -7 2 -21 -8 -30 -22z"/>
<path d="M4063 1582 c-42 -6 -23 -22 26 -22 34 0 51 4 55 15 4 11 -2 15 -22
15 -21 0 -24 -2 -12 -10 13 -8 13 -10 -2 -10 -9 0 -18 3 -20 8 -1 4 -13 6 -25
4z"/>
<path d="M4920 1576 l-45 -11 84 -3 c92 -3 131 4 96 18 -27 12 -81 10 -135 -4z"/>
<path d="M4830 1570 c-12 -8 -9 -10 13 -10 15 0 27 5 27 10 0 13 -20 13 -40 0z"/>
<path d="M4218 1563 c7 -3 16 -2 19 1 4 3 -2 6 -13 5 -11 0 -14 -3 -6 -6z"/>
<path d="M4778 1553 c7 -3 16 -2 19 1 4 3 -2 6 -13 5 -11 0 -14 -3 -6 -6z"/>
<path d="M5513 1543 c-13 -8 -23 -23 -23 -32 0 -9 23 -94 50 -189 28 -95 50
-174 50 -177 0 -12 27 -3 49 16 19 15 24 29 23 53 -2 29 4 38 51 75 58 44 67
47 96 30 14 -10 24 -7 50 12 17 12 30 27 28 32 -4 14 -319 197 -337 196 -8 0
-25 -7 -37 -16z m138 -129 l41 -26 -23 -24 c-12 -13 -28 -24 -34 -24 -11 0
-35 62 -35 89 0 16 5 14 51 -15z"/>
<path d="M4287 1443 c-14 -13 -6 -24 16 -23 59 5 63 -16 12 -63 -49 -45 -46
-57 15 -57 50 0 69 17 30 27 -11 3 -20 7 -20 10 0 3 9 16 20 30 36 46 20 83
-35 83 -18 0 -35 -3 -38 -7z"/>
<path d="M4426 1428 c-34 -48 -9 -128 39 -128 31 0 55 35 55 81 0 62 -62 93
-94 47z m62 -31 c6 -29 -7 -67 -23 -67 -18 0 -29 34 -21 66 8 29 39 29 44 1z"/>
<path d="M4571 1433 c-32 -61 -8 -133 44 -133 47 0 70 93 34 137 -16 19 -66
16 -78 -4z m65 -40 c8 -29 -6 -58 -27 -58 -15 0 -24 46 -15 71 9 23 35 16 42
-13z"/>
<path d="M4710 1434 c0 -11 8 -15 27 -12 20 2 29 -2 31 -14 2 -11 -3 -18 -12
-18 -20 0 -21 -19 -1 -26 8 -4 15 -13 15 -21 0 -11 -8 -14 -30 -11 -34 5 -51
-9 -29 -23 22 -14 66 -11 82 6 19 18 15 114 -4 126 -25 15 -79 11 -79 -7z"/>
<path d="M3680 1251 c-80 -77 -143 -141 -140 -144 3 -2 19 -12 36 -20 30 -15
34 -15 56 3 25 19 25 19 91 -12 59 -27 66 -34 69 -62 2 -24 11 -35 38 -47 19
-10 38 -15 41 -13 4 2 9 59 13 126 3 68 9 155 12 195 l6 72 -33 20 c-19 12
-36 21 -39 21 -3 0 -70 -63 -150 -139z m130 -55 c0 -54 -10 -62 -51 -41 l-31
17 33 34 c18 19 37 34 41 34 4 0 8 -20 8 -44z"/>
<path d="M5166 1336 c-55 -23 -101 -47 -104 -54 -3 -9 114 -284 137 -321 6 -9
17 -11 32 -7 51 13 52 18 23 91 -21 52 -25 70 -15 73 8 3 36 16 64 31 65 34
91 80 77 133 -11 39 -70 98 -98 98 -9 -1 -62 -20 -116 -44z m118 -52 c40 -16
8 -58 -61 -82 -29 -10 -34 -9 -44 9 -5 11 -9 25 -7 31 3 8 55 34 95 47 1 1 8
-2 17 -5z"/>
<path d="M4915 1253 c-11 -3 -23 -8 -27 -12 -4 -4 2 -60 13 -124 l22 -118 -23
-24 c-17 -18 -34 -25 -60 -25 -61 0 -70 14 -92 141 -10 63 -22 117 -26 121 -4
4 -23 3 -42 -1 -33 -6 -35 -9 -32 -41 9 -87 43 -232 59 -254 69 -93 256 -62
293 49 8 26 6 60 -10 156 -12 67 -23 126 -26 131 -5 8 -16 9 -49 1z"/>
<path d="M4269 1208 c0 -13 -6 -95 -13 -183 -7 -88 -11 -162 -10 -164 2 -2 20
-4 41 -5 l38 -1 9 63 c5 34 12 62 15 61 3 0 29 -30 56 -67 46 -61 55 -68 98
-76 27 -4 51 -6 54 -2 3 3 -26 48 -65 100 -40 52 -73 100 -74 105 -2 6 30 44
71 86 41 41 72 77 70 80 -3 2 -24 5 -47 6 -39 3 -47 -1 -95 -49 -29 -29 -56
-52 -61 -52 -4 0 -6 26 -4 58 l3 57 -42 3 c-39 3 -43 1 -44 -20z"/>
<path d="M4694 5675 c-8 -19 5 -38 21 -31 7 2 18 -1 25 -7 10 -10 10 -7 1 10
-7 14 -17 20 -26 17 -11 -5 -13 -2 -9 10 3 9 3 16 0 16 -4 0 -9 -7 -12 -15z"/>
<path d="M8296 4493 c-99 -30 -170 -96 -200 -186 -20 -59 -20 -99 -1 -163 29
-100 116 -169 275 -219 228 -72 239 -78 226 -128 -9 -36 -37 -49 -106 -50 -84
0 -143 31 -167 89 l-18 44 -120 -2 -120 -3 0 -165 0 -165 115 0 114 0 8 44 c4
24 10 46 12 49 3 2 21 -9 41 -26 68 -60 140 -84 252 -84 237 1 390 156 337
342 -28 102 -122 172 -324 240 -116 40 -185 74 -194 95 -14 38 -6 65 27 85 82
50 196 3 230 -95 l14 -40 116 -3 117 -3 0 171 0 171 -112 -3 -113 -3 -9 -55
-8 -55 -27 31 c-79 92 -231 129 -365 87z"/>
<path d="M13207 4484 c-81 -25 -144 -72 -189 -140 -35 -54 -48 -105 -48 -189
0 -166 125 -288 295 -290 61 0 77 4 128 33 l59 33 -7 -43 c-22 -132 -124 -179
-270 -123 -38 14 -76 27 -83 28 -17 2 -95 -140 -88 -159 9 -24 122 -73 210
-90 70 -14 97 -15 152 -6 227 38 348 218 347 517 0 178 -49 290 -167 380 -77
59 -233 81 -339 49z m187 -213 c28 -25 46 -66 46 -109 0 -33 -6 -45 -35 -70
-59 -53 -149 -52 -177 2 -30 56 -27 138 7 166 45 37 123 42 159 11z"/>
<path d="M9037 4483 c-4 -3 -7 -42 -7 -85 l0 -78 35 0 35 0 0 -305 0 -305 -35
0 -36 0 3 -82 3 -83 175 0 175 0 3 83 3 82 -36 0 -35 0 1 273 c1 258 2 268 15
199 12 -68 58 -239 139 -522 l33 -115 138 0 138 0 13 45 c18 58 44 154 128
465 7 28 18 77 25 110 25 121 30 88 27 -180 -2 -298 4 -270 -60 -274 -16 -1
-17 -10 -15 -83 l3 -83 210 0 210 0 3 83 c2 61 0 82 -10 83 -7 1 -24 2 -38 3
l-25 1 0 300 0 300 35 5 35 5 0 80 0 80 -249 3 c-137 1 -253 -1 -257 -5 -7 -7
-64 -221 -117 -431 -8 -34 -19 -59 -23 -55 -4 5 -22 62 -40 128 -51 192 -66
246 -84 308 l-16 57 -248 0 c-136 0 -251 -3 -254 -7z"/>
<path d="M10610 4405 c0 -84 0 -85 25 -85 32 0 32 -14 1 -110 -13 -41 -40
-129 -61 -195 -20 -66 -49 -158 -64 -205 l-28 -85 -44 -5 -44 -5 0 -85 0 -85
210 0 210 0 0 85 0 85 -49 3 -48 3 7 37 c4 20 10 41 14 45 6 6 128 10 262 7
21 0 28 -6 33 -27 4 -16 9 -36 12 -45 4 -15 -4 -17 -58 -20 l-63 -3 0 -85 0
-85 270 0 270 0 0 85 0 85 -50 5 -49 5 -116 370 c-64 204 -119 376 -123 383
-6 9 -70 12 -263 12 l-254 0 0 -85z m320 -280 c22 -71 40 -135 40 -142 0 -10
-22 -13 -83 -13 -46 0 -86 2 -89 6 -3 3 9 56 28 118 39 131 53 170 59 164 2
-2 23 -62 45 -133z"/>
<path d="M11537 4483 c-4 -3 -7 -42 -7 -85 l0 -78 40 0 40 0 0 -305 0 -305
-40 0 -41 0 3 -82 3 -83 200 0 200 0 3 83 3 82 -46 0 c-28 0 -48 5 -51 13 -2
7 -3 85 -2 172 l3 160 154 -230 c85 -126 163 -242 175 -258 l20 -28 141 3 140
3 3 388 2 387 46 0 45 0 -3 83 -3 82 -202 3 -203 2 0 -85 0 -85 45 0 45 0 0
-160 c0 -88 -2 -160 -4 -160 -2 0 -77 110 -167 245 l-164 245 -186 0 c-102 0
-189 -3 -192 -7z"/>
<path d="M6900 4115 c0 -7 67 -75 75 -75 3 0 5 3 5 8 0 8 -80 76 -80 67z"/>
<path d="M2155 4080 c3 -5 8 -10 11 -10 2 0 4 5 4 10 0 6 -5 10 -11 10 -5 0
-7 -4 -4 -10z"/>
<path d="M2115 4050 c-15 -17 -16 -23 -6 -33 11 -10 13 -9 9 3 -3 8 2 20 11
27 9 6 13 14 10 17 -3 3 -14 -3 -24 -14z"/>
<path d="M13580 3134 c-243 -65 -384 -353 -311 -632 35 -134 114 -233 230
-289 45 -21 74 -28 149 -31 106 -5 161 10 213 59 17 16 32 29 34 29 1 0 10
-18 20 -40 l18 -40 133 0 134 0 2 168 3 167 28 3 c27 3 27 4 27 73 l0 69 -225
0 -225 0 0 -70 0 -70 40 0 c40 0 40 0 40 -38 0 -28 -7 -45 -26 -63 -22 -21
-35 -24 -97 -24 -89 0 -125 23 -165 105 -23 47 -27 67 -26 140 0 94 21 153 74
209 85 89 231 47 261 -75 l11 -44 119 0 119 0 0 195 0 196 -102 -3 -101 -3 -9
-30 c-5 -16 -12 -36 -14 -43 -3 -10 -14 -5 -39 17 -48 42 -81 57 -150 70 -74
14 -97 13 -165 -5z"/>
<path d="M8062 3048 l3 -83 35 -5 35 -5 3 -297 2 -297 -37 -3 -38 -3 -3 -82
-3 -83 216 0 216 0 -3 83 -3 82 -37 3 -38 3 0 73 0 73 49 41 c27 23 53 42 58
42 7 0 132 -195 141 -220 2 -5 -16 -10 -40 -12 l-43 -3 -3 -82 -3 -83 266 0
266 0 -3 83 -3 82 -38 3 c-36 3 -42 8 -94 90 -31 48 -90 139 -131 202 -41 63
-77 122 -79 130 -3 10 31 46 92 98 85 73 100 82 135 82 l40 0 0 85 0 85 -222
-2 -223 -3 0 -80 0 -80 43 -3 c23 -2 42 -6 42 -10 0 -4 -17 -22 -37 -39 -21
-17 -51 -43 -68 -58 -86 -76 -133 -115 -139 -115 -3 0 -6 49 -6 109 l0 110 38
3 37 3 0 80 0 80 -213 3 -213 2 3 -82z"/>
<path d="M9150 3046 l0 -85 38 -3 37 -3 6 -240 c4 -179 9 -252 21 -287 58
-174 188 -259 398 -260 158 0 260 54 324 171 45 83 56 162 56 403 l0 217 38 3
37 3 0 80 0 80 -197 3 -198 2 0 -85 0 -85 35 0 35 0 0 -203 c0 -296 -23 -357
-134 -357 -68 0 -108 29 -126 92 -7 25 -14 133 -17 255 l-5 212 38 3 39 3 0
80 0 80 -212 3 -213 2 0 -84z"/>
<path d="M10160 3046 l0 -86 40 0 40 0 0 -300 0 -300 -40 0 -40 0 0 -85 0 -85
215 0 215 0 0 84 0 85 -37 3 -38 3 0 105 0 105 115 6 c124 7 182 23 239 66 74
56 101 110 101 200 0 98 -14 138 -68 192 -79 79 -108 84 -449 89 l-293 4 0
-86z m517 -118 c20 -21 27 -39 31 -82 4 -53 3 -57 -31 -91 -33 -33 -39 -35
-101 -35 l-66 0 0 113 c0 63 3 117 8 121 4 4 35 6 70 4 51 -3 67 -9 89 -30z"/>
<path d="M11250 3045 c0 -84 0 -85 25 -85 32 0 32 -14 1 -110 -13 -41 -38
-122 -56 -180 -18 -58 -46 -150 -64 -205 l-31 -100 -45 -5 -45 -5 -3 -82 -3
-83 216 0 215 0 0 85 0 85 -50 0 c-55 0 -56 2 -38 61 l11 39 138 0 c152 0 149
1 164 -67 l7 -33 -61 0 -61 0 0 -85 0 -85 270 0 271 0 -3 83 -3 82 -47 3 -47
3 -41 132 c-23 73 -54 173 -70 222 -16 50 -52 163 -80 253 l-51 162 -259 0
-260 0 0 -85z m356 -402 l6 -33 -86 0 c-105 0 -102 -9 -45 174 l42 131 38
-120 c21 -66 41 -135 45 -152z"/>
<path d="M12162 3048 l3 -83 38 -3 37 -3 0 -300 0 -299 -40 0 -40 0 0 -85 0
-85 205 0 205 0 0 85 0 85 -50 0 -50 0 0 165 c0 91 3 165 8 165 4 0 82 -112
173 -248 l166 -247 146 -3 147 -3 0 386 0 385 45 0 45 0 0 85 0 85 -205 0
-206 0 3 -82 3 -83 45 -5 45 -5 3 -152 c2 -98 -1 -153 -8 -153 -5 0 -81 108
-167 239 l-158 240 -198 0 -198 1 3 -82z"/>
<path d="M7070 2355 c0 -8 4 -15 10 -15 5 0 7 7 4 15 -4 8 -8 15 -10 15 -2 0
-4 -7 -4 -15z"/>
<path d="M7022 2249 c-19 -30 -11 -32 11 -3 10 13 14 24 10 24 -5 0 -14 -9
-21 -21z"/>
<path d="M2088 2113 c7 -3 16 -2 19 1 4 3 -2 6 -13 5 -11 0 -14 -3 -6 -6z"/>
</g>
</svg>
